PathFileType	4	(X/Y/Z)	 s06c0102.trc
DataRate	CameraRate	NumFrames	NumMarkers	Units	OrigDataRate	OrigDataStartFrame	OrigNumFrames
200	200	4	48	mm	200	501	2000
Frame#	Time	racr			lacr			c7			jug			rlel			rdr			llel			ldr			s2			lic			ric			lasi			rasi			rpsi			lpsi			rgt			lgt			rth1			rth2			rth3			rth4			rlfc			rmfc			rsh1			rsh2			rsh3			rsh4			rlmal			rcal			rtoe			rmt5			lth1			lth2			lth4			lth3			llfc			lmfc			llmal			lcal			lmt5			lsh1			lsh2			lsh3			lsh4			ltoe			SBIKE			LBIKE			RBIKE			
		X1	Y1	Z1	X2	Y2	Z2	X3	Y3	Z3	X4	Y4	Z4	X5	Y5	Z5	X6	Y6	Z6	X7	Y7	Z7	X8	Y8	Z8	X9	Y9	Z9	X10	Y10	Z10	X11	Y11	Z11	X12	Y12	Z12	X13	Y13	Z13	X14	Y14	Z14	X15	Y15	Z15	X16	Y16	Z16	X17	Y17	Z17	X18	Y18	Z18	X19	Y19	Z19	X20	Y20	Z20	X21	Y21	Z21	X22	Y22	Z22	X23	Y23	Z23	X24	Y24	Z24	X25	Y25	Z25	X26	Y26	Z26	X27	Y27	Z27	X28	Y28	Z28	X29	Y29	Z29	X30	Y30	Z30	X31	Y31	Z31	X32	Y32	Z32	X33	Y33	Z33	X34	Y34	Z34	X35	Y35	Z35	X36	Y36	Z36	X37	Y37	Z37	X38	Y38	Z38	X39	Y39	Z39	X40	Y40	Z40	X41	Y41	Z41	X42	Y42	Z42	X43	Y43	Z43	X44	Y44	Z44	X45	Y45	Z45	X46	Y46	Z46	X47	Y47	Z47	X48	Y48	Z48	
501	2.5050	504.281563	1296.515373	-43.835445	512.036782	1294.903488	-346.454131	490.952849	1374.433697	-198.604067	508.547335	1212.702980	-196.768821	529.020114	1047.363989	61.526140	718.077287	921.384653	-36.593356	486.987679	1038.537329	-443.340141	702.372604	938.874370	-393.924094	-36.240121	1137.404477	-177.348364	123.466708	1133.987445	-363.579014	123.679054	1095.637114	-31.211852	140.261092	1085.314435	-330.326235	155.296411	1060.506734	-70.786238	-1.376998	1175.467081	-151.660743	-9.748836	1177.116587	-211.215296	91.842164	1000.788358	-13.944045	98.099311	1095.462292	-387.588445	176.522073	894.400198	-13.489631	238.081649	829.350513	-29.450426	257.916216	745.773680	-42.135152	266.011026	849.419832	-45.327079	281.435211	645.068798	-61.438608	259.697363	625.421361	-171.942807	230.722213	536.601316	-31.699093	206.811246	454.619900	-51.937239	148.890712	388.932734	-49.311501	223.554640	448.432254	-87.714201	98.395143	321.398024	-52.900113	35.993584	339.528089	-99.692541	216.479699	128.499211	-94.017919	132.765407	184.797578	-28.271756	174.340977	1013.457792	-401.851942	260.221117	998.617401	-395.356486	274.653404	1029.559141	-378.226404	329.243027	941.634295	-396.159574	406.104529	851.301262	-368.889872	402.462244	831.618062	-250.683324	205.277954	532.587137	-372.653946	128.989897	496.581689	-325.983034	323.423861	474.724810	-403.865608	356.320392	754.014402	-392.542419	327.063934	672.996907	-376.232334	261.742715	612.298717	-379.817806	347.910057	662.874522	-344.567141	409.626228	487.381723	-346.557519	-203.244112	869.014627	-206.104344	-49.470439	83.851451	-413.702071	-48.939416	80.017937	-16.199489	
502	2.5100	503.613014	1296.280781	-44.147676	510.363412	1294.980857	-346.705071	489.631633	1374.025375	-198.581047	507.617135	1212.340769	-196.999538	528.599953	1047.008575	61.592133	717.559398	921.340303	-36.025633	485.221999	1038.035582	-443.174190	701.403303	939.106418	-393.997862	-37.874109	1136.444076	-176.754229	122.317770	1132.682184	-363.231464	121.853840	1094.379007	-30.245485	138.947679	1083.951036	-329.876903	153.455851	1060.432382	-69.175072	-2.693778	1174.446907	-151.190329	-11.303862	1176.069119	-210.930902	90.328613	1000.277023	-12.838404	96.534888	1093.455036	-387.520156	176.849320	895.721149	-13.669328	239.012373	831.425197	-30.230975	260.061097	748.136628	-42.780300	266.786020	851.806248	-45.943020	283.567039	647.153851	-62.016964	261.299765	627.934489	-173.044372	230.305753	539.456756	-32.693584	204.911741	457.932400	-52.467999	145.624481	393.589906	-49.685687	221.796387	451.208587	-88.399630	93.781651	326.981955	-53.099484	31.325826	345.873732	-99.852572	209.513717	132.869450	-93.915215	126.426227	190.104175	-28.297494	172.194332	1010.176556	-401.541383	257.852243	994.232406	-395.294991	272.702712	1024.924560	-378.484694	326.023638	936.189225	-395.888283	402.043705	845.218475	-368.974239	398.718705	825.732427	-250.464144	208.336958	523.357015	-373.040075	133.730521	484.736160	-325.905755	328.163149	468.704634	-404.024821	354.445498	747.039639	-392.325921	327.092528	665.499299	-376.111112	263.142525	603.473958	-379.705002	348.288475	655.821945	-344.510602	414.229028	484.439954	-346.979859	-203.283388	868.931484	-206.027782	-49.480153	83.826447	-413.687736	-48.974704	79.971100	-16.188746	
503	2.5150	503.025309	1295.986195	-44.420702	508.779655	1294.989816	-347.056342	488.369163	1373.608171	-198.609031	506.678591	1211.820854	-197.007355	528.242581	1046.715614	61.654024	717.206883	921.289235	-35.904063	483.627523	1037.540237	-442.988384	700.492475	939.285760	-394.129499	-39.226814	1135.575726	-176.229424	121.373021	1131.315032	-362.808659	120.201777	1093.192703	-29.239888	137.759973	1082.485774	-329.371795	151.815591	1059.792323	-68.016630	-3.617258	1173.378766	-150.446133	-12.593247	1175.083787	-210.599342	88.752899	999.829664	-11.801817	95.178316	1091.371105	-387.512194	177.113898	897.094197	-13.657120	239.911220	833.500799	-30.630872	262.044558	750.570427	-43.406939	267.609317	854.115342	-46.042331	284.982766	649.290308	-62.871754	263.086768	630.476672	-173.760565	230.143710	542.382836	-33.267078	203.099282	461.405266	-52.912398	142.437429	398.285888	-50.080226	220.078301	454.291486	-88.947890	89.176752	332.760761	-53.316287	26.933482	352.403869	-99.959184	202.843612	137.571838	-93.773426	120.343765	195.702493	-28.192969	170.269065	1006.973411	-401.307335	255.676230	989.764934	-395.234532	271.119658	1020.380857	-378.849482	322.996704	930.748142	-395.609550	398.110509	839.211938	-369.293596	396.711185	816.698063	-254.437593	211.847221	513.494676	-373.209237	138.421263	473.247070	-326.147423	333.021915	462.763932	-404.492483	352.831324	740.096467	-392.380958	327.312738	657.965901	-376.070475	264.773387	594.530125	-379.570375	348.790134	648.690788	-344.487004	418.538110	480.836627	-347.469829	-203.315407	868.842539	-205.981099	-49.508487	83.724793	-413.725446	-49.010656	79.944667	-16.181758	
504	2.5200	502.399913	1295.631918	-44.851566	507.358520	1294.870903	-347.621272	487.201169	1373.151391	-198.583896	505.826780	1211.464894	-197.147679	527.921234	1046.450381	61.634972	716.894619	921.251656	-35.775829	482.250611	1036.963866	-442.788037	699.654857	939.434377	-394.216880	-40.583767	1134.784956	-175.790661	120.642313	1129.776355	-362.480583	118.797002	1092.293681	-28.440570	136.779009	1080.813515	-329.010459	150.042002	1059.139797	-67.055474	-4.800186	1172.698323	-150.209390	-13.532201	1174.146957	-209.828540	87.359343	999.392508	-10.821456	94.057276	1089.339547	-387.461860	177.159294	898.146861	-13.578904	240.756612	835.580407	-30.834334	263.840669	752.945733	-43.816365	268.083969	856.721499	-46.153336	286.669218	651.507100	-63.413379	265.024020	632.999706	-174.266770	230.154134	545.460156	-33.679170	200.665747	464.814002	-54.012005	139.468472	403.154949	-50.376988	218.261184	457.176701	-89.533265	84.917580	338.864186	-53.414960	22.821107	359.182444	-100.046339	196.498044	142.570594	-93.706286	114.528978	201.507259	-28.145894	168.683679	1003.961740	-401.284797	253.783954	985.499511	-395.121759	269.736724	1015.920195	-379.083477	320.275240	925.478580	-395.370984	394.360183	833.149532	-369.487482	394.414766	809.960774	-255.085037	215.198071	503.956330	-373.175864	142.870309	461.961397	-325.998951	337.668533	456.573097	-404.800675	351.344433	733.006265	-392.286825	327.665036	650.399129	-375.875818	266.555441	585.841611	-379.089606	349.368709	641.524468	-344.326852	422.755634	476.677827	-347.713399	-203.359252	868.789221	-205.937981	-49.541831	83.693403	-413.712525	-49.018046	79.925179	-16.178996	
